HIERARCHY
ROOT hip
{
  OFFSET 0 0 0
  CHANNELS 6 Xposition Yposition Zposition Zrotation Yrotation Xrotation
  JOINT abdomen
  {
    OFFSET 0 20.6881 -0.73152
    CHANNELS 3 Zrotation Xrotation Yrotation
    JOINT chest
    {
      OFFSET 0 11.7043 -0.48768
      CHANNELS 3 Zrotation Xrotation Yrotation
      JOINT neck
      {
        OFFSET 0 22.1894 -2.19456
        CHANNELS 3 Zrotation Xrotation Yrotation
        JOINT head
        {
          OFFSET -0.24384 7.07133 1.2192
          CHANNELS 3 Zrotation Xrotation Yrotation
          JOINT leftEye
          {
            OFFSET 4.14528 8.04674 8.04672
            CHANNELS 3 Zrotation Xrotation Yrotation
            End Site
            {
              OFFSET 1 0 0
            }
          }
          JOINT rightEye
          {
            OFFSET -3.6576 8.04674 8.04672
            CHANNELS 3 Zrotation Xrotation Yrotation
            End Site
            {
              OFFSET 1 0 0
            }
          }
        }
      }
      JOINT rCollar
      {
        OFFSET -2.68224 19.2634 -4.8768
        CHANNELS 3 Zrotation Xrotation Yrotation
        JOINT rShldr
        {
          OFFSET -8.77824 -1.95073 1.46304
          CHANNELS 3 Zrotation Xrotation Yrotation
          JOINT rForeArm
          {
            OFFSET -28.1742 -1.7115 0.48768
            CHANNELS 3 Zrotation Xrotation Yrotation
            JOINT rHand
            {
              OFFSET -22.5879 0.773209 7.07136
              CHANNELS 3 Zrotation Xrotation Yrotation
              JOINT rThumb1
              {
                OFFSET -1.2192 -0.487915 3.41376
                CHANNELS 3 Zrotation Xrotation Yrotation
                JOINT rThumb2
                {
                  OFFSET -3.37035 -0.52449 3.41376
                  CHANNELS 3 Zrotation Xrotation Yrotation
                  End Site
                  {
                    OFFSET -1.78271 -1.18214 1.43049
                  }
                }
              }
              JOINT rIndex1
              {
                OFFSET -7.75947 0.938293 5.60832
                CHANNELS 3 Zrotation Xrotation Yrotation
                JOINT rIndex2
                {
                  OFFSET -2.54057 -0.884171 1.56538
                  CHANNELS 3 Zrotation Xrotation Yrotation
                  End Site
                  {
                    OFFSET -1.62519 -0.234802 1.16502
                  }
                }
              }
              JOINT rMid1
              {
                OFFSET -8.24714 1.18213 3.41376
                CHANNELS 3 Zrotation Xrotation Yrotation
                JOINT rMid2
                {
                  OFFSET -3.10165 -0.590103 1.0647
                  CHANNELS 3 Zrotation Xrotation Yrotation
                  End Site
                  {
                    OFFSET -2.48547 -0.328903 0.83742
                  }
                }
              }
              JOINT rRing1
              {
                OFFSET -8.82822 0.546677 1.51678
                CHANNELS 3 Zrotation Xrotation Yrotation
                JOINT rRing2
                {
                  OFFSET -2.60934 -0.819778 -0.0198488
                  CHANNELS 3 Zrotation Xrotation Yrotation
                  End Site
                  {
                    OFFSET -2.33842 -0.294052 0.168128
                  }
                }
              }
              JOINT rPinky1
              {
                OFFSET -8.27202 -0.0477905 -0.4584
                CHANNELS 3 Zrotation Xrotation Yrotation
                JOINT rPinky2
                {
                  OFFSET -1.82734 -0.647385 -0.700984
                  CHANNELS 3 Zrotation Xrotation Yrotation
                  End Site
                  {
                    OFFSET -1.69225 -0.51767 -0.607171
                  }
                }
              }
            }
          }
        }
      }
      JOINT lCollar
      {
        OFFSET 2.68224 19.2634 -4.8768
        CHANNELS 3 Zrotation Xrotation Yrotation
        JOINT lShldr
        {
          OFFSET 8.77824 -1.95073 1.46304
          CHANNELS 3 Zrotation Xrotation Yrotation
          JOINT lForeArm
          {
            OFFSET 28.1742 -1.7115 0.48768
            CHANNELS 3 Zrotation Xrotation Yrotation
            JOINT lHand
            {
              OFFSET 22.5879 0.773209 7.07136
              CHANNELS 3 Zrotation Xrotation Yrotation
              JOINT lThumb1
              {
                OFFSET 1.2192 -0.487915 3.41376
                CHANNELS 3 Zrotation Xrotation Yrotation
                JOINT lThumb2
                {
                  OFFSET 3.37035 -0.52449 3.41376
                  CHANNELS 3 Zrotation Xrotation Yrotation
                  End Site
                  {
                    OFFSET 1.78271 -1.18214 1.43049
                  }
                }
              }
              JOINT lIndex1
              {
                OFFSET 7.75947 0.938293 5.60832
                CHANNELS 3 Zrotation Xrotation Yrotation
                JOINT lIndex2
                {
                  OFFSET 2.54057 -0.884171 1.56538
                  CHANNELS 3 Zrotation Xrotation Yrotation
                  End Site
                  {
                    OFFSET 1.62519 -0.234802 1.16502
                  }
                }
              }
              JOINT lMid1
              {
                OFFSET 8.24714 1.18213 3.41376
                CHANNELS 3 Zrotation Xrotation Yrotation
                JOINT lMid2
                {
                  OFFSET 3.10165 -0.590103 1.0647
                  CHANNELS 3 Zrotation Xrotation Yrotation
                  End Site
                  {
                    OFFSET 2.48547 -0.328903 0.83742
                  }
                }
              }
              JOINT lRing1
              {
                OFFSET 8.82822 0.546677 1.51678
                CHANNELS 3 Zrotation Xrotation Yrotation
                JOINT lRing2
                {
                  OFFSET 2.60934 -0.819778 -0.0198488
                  CHANNELS 3 Zrotation Xrotation Yrotation
                  End Site
                  {
                    OFFSET 2.33842 -0.294052 0.168128
                  }
                }
              }
              JOINT lPinky1
              {
                OFFSET 8.27202 -0.0477905 -0.4584
                CHANNELS 3 Zrotation Xrotation Yrotation
                JOINT lPinky2
                {
                  OFFSET 1.82734 -0.647385 -0.700984
                  CHANNELS 3 Zrotation Xrotation Yrotation
                  End Site
                  {
                    OFFSET 1.69225 -0.51767 -0.607171
                  }
                }
              }
            }
          }
        }
      }
    }
  }
  JOINT rButtock
  {
    OFFSET -8.77824 4.35084 1.2192
    CHANNELS 3 Zrotation Xrotation Yrotation
    JOINT rThigh
    {
      OFFSET 0 -1.70687 -2.19456
      CHANNELS 3 Zrotation Xrotation Yrotation
      JOINT rShin
      {
        OFFSET 0 -36.8199 0.73152
        CHANNELS 3 Zrotation Xrotation Yrotation
        JOINT rFoot
        {
          OFFSET 0.73152 -45.1104 -5.12064
          CHANNELS 3 Zrotation Xrotation Yrotation
          End Site
          {
            OFFSET -1.1221 -3.69964 12.103
          }
        }
      }
    }
  }
  JOINT lButtock
  {
    OFFSET 8.77824 4.35084 1.2192
    CHANNELS 3 Zrotation Xrotation Yrotation
    JOINT lThigh
    {
      OFFSET 0 -1.70687 -2.19456
      CHANNELS 3 Zrotation Xrotation Yrotation
      JOINT lShin
      {
        OFFSET 0 -36.8199 0.73152
        CHANNELS 3 Zrotation Xrotation Yrotation
        JOINT lFoot
        {
          OFFSET -0.73152 -45.1104 -5.12064
          CHANNELS 3 Zrotation Xrotation Yrotation
          End Site
          {
            OFFSET 1.1221 -3.69964 12.103
          }
        }
      }
    }
  }
}
MOTION
Frames:	9
Frame Time:	0.00833333
-4.847 83.8299 34.755 -2.7998 -3.925 4.1658 -5.66359 2.98988 4.20657 0.377386 -2.11188 1.14925 -0.672176 3.10242 -2.41123 7.49865 16.0343 -5.62487 -0.0 0.0 0.0 -0.0 0.0 0.0 1.6661e-14 -2.14006e-13 -5.14045e-15 37.3322 49.5941 47.7234 -28.082 -31.1172 69.0377 -0.220356 13.2531 1.89688 1.07419e-09 3.66412e-09 -7.39552e-10 1.84861e-09 6.31821e-09 -1.28912e-09 1.07419e-09 3.66412e-09 -7.39568e-10 7.73091 5.47488 0.417314 1.07419e-09 3.66412e-09 -7.39552e-10 2.90554 0.965183 0.102902 1.0742e-09 3.66412e-09 -7.39556e-10 10.2786 0.731801 0.0259123 1.07419e-09 3.66412e-09 -7.3955e-10 2.22167 -0.733487 -0.20892 1.65738e-14 -2.14028e-13 -5.31671e-15 -42.3311 46.4007 -40.2208 27.5584 -28.4246 -64.7399 0.0360145 5.40829 -0.762374 -9.44221e-10 6.83083e-09 1.09515e-09 -1.62674e-09 1.17911e-08 1.89695e-09 -9.44223e-10 6.83081e-09 1.09517e-09 -7.73091 5.47488 -0.417314 -9.4422e-10 6.83083e-09 1.09515e-09 -2.90554 0.965183 -0.102902 -9.44229e-10 6.83083e-09 1.09516e-09 -10.2786 0.731801 -0.0259123 -9.44215e-10 6.83083e-09 1.09515e-09 -2.22167 -0.733487 0.20892 -2.03217e-16 0.0 -3.88251e-19 -21.6505 -2.87304 -0.0113972 -0.000273974 -0.681069 -0.00183851 0.486366 3.54814 -0.0126728 2.03217e-16 0.0 3.88251e-19 8.77467 -11.0044 -6.38462 0.0489089 22.5643 -0.608766 6.65835 -19.2515 18.6412
-4.87506 83.8346 34.7473 -2.8959 -3.8963 4.149 -5.64444 3.02048 4.33937 0.283253 -2.19179 1.18578 -0.636236 3.10634 -2.46142 7.59741 16.0636 -5.7442 -0.0 0.0 0.0 -0.0 0.0 0.0 5.82325e-14 -2.27398e-13 -2.98177e-16 36.8775 49.2238 48.5715 -27.9732 -30.4545 67.9745 -0.216169 13.1284 1.8784 9.9593e-10 3.36731e-09 -7.67961e-10 1.7136e-09 5.807e-09 -1.33847e-09 9.9593e-10 3.36731e-09 -7.67977e-10 7.73091 5.47488 0.417314 9.95929e-10 3.36731e-09 -7.67961e-10 2.90554 0.965183 0.102902 9.95935e-10 3.36731e-09 -7.67964e-10 10.2786 0.731801 0.0259123 9.95924e-10 3.36731e-09 -7.67958e-10 2.22167 -0.733487 -0.20892 5.81599e-14 -2.27422e-13 -4.96962e-16 -42.2249 46.4793 -40.3047 27.5562 -28.4151 -64.7246 0.0357758 5.39086 -0.759902 -1.25793e-09 9.00272e-09 1.37834e-09 -2.1675e-09 1.55408e-08 2.38758e-09 -1.25793e-09 9.0027e-09 1.37835e-09 -7.73091 5.47488 -0.417314 -1.25793e-09 9.00272e-09 1.37833e-09 -2.90554 0.965183 -0.102902 -1.25793e-09 9.00272e-09 1.37834e-09 -10.2786 0.731801 -0.0259123 -1.25792e-09 9.00273e-09 1.37834e-09 -2.22167 -0.733487 0.20892 -2.03217e-16 0.0 -3.88251e-19 -21.652 -2.87328 -0.0113693 -0.000264345 -0.681337 -0.00175312 0.487826 3.54862 -0.0128771 2.03217e-16 0.0 3.88251e-19 8.80567 -11.0009 -6.45038 0.0472586 22.5781 -0.610265 6.69424 -19.2626 18.7137
-4.88914 83.8377 34.7457 -2.9518 -3.8308 4.1348 -5.68634 2.98379 4.41564 0.32717 -2.04913 1.20776 -0.669619 2.98599 -2.49772 7.64889 16.1054 -5.81555 -0.0 0.0 0.0 -0.0 0.0 0.0 6.08774e-14 -1.92523e-13 2.68301e-14 36.1238 48.7721 49.7159 -27.8413 -29.707 66.7009 -0.2126 13.0217 1.86258 8.31939e-10 2.72876e-09 -6.9811e-10 1.43099e-09 4.70516e-09 -1.21711e-09 8.31941e-10 2.72876e-09 -6.98125e-10 7.73091 5.47488 0.417314 8.31939e-10 2.72876e-09 -6.98111e-10 2.90554 0.965183 0.102902 8.31945e-10 2.72876e-09 -6.98113e-10 10.2786 0.731801 0.0259123 8.31933e-10 2.72876e-09 -6.98106e-10 2.22167 -0.733487 -0.20892 6.07922e-14 -1.92536e-13 2.66368e-14 -42.1198 46.3851 -40.5176 27.5479 -28.38 -64.6681 0.0355799 5.376 -0.757795 -1.07374e-09 7.90418e-09 1.23699e-09 -1.84982e-09 1.36431e-08 2.14235e-09 -1.07374e-09 7.90415e-09 1.237e-09 -7.73091 5.47488 -0.417314 -1.07374e-09 7.90418e-09 1.23699e-09 -2.90554 0.965183 -0.102902 -1.07375e-09 7.90418e-09 1.23699e-09 -10.2786 0.731801 -0.0259123 -1.07373e-09 7.90418e-09 1.23698e-09 -2.22167 -0.733487 0.20892 -2.03217e-16 0.0 -3.88251e-19 -21.6529 -2.87313 -0.0113557 -0.000263253 -0.682449 -0.00174162 0.488297 3.54962 -0.012933 2.03217e-16 0.0 3.88251e-19 8.8115 -10.992 -6.49999 0.0463929 22.5891 -0.611846 6.72338 -19.301 18.7547
-4.886 83.8408 34.7484 -2.9413 -3.7837 4.1139 -5.76567 2.90501 4.44973 0.458524 -1.75933 1.21871 -0.745942 2.77997 -2.52442 7.66583 16.156 -5.85459 -0.0 0.0 0.0 -0.0 0.0 0.0 4.21199e-14 -1.25784e-13 6.81303e-14 35.1885 48.2731 51.0451 -27.6645 -28.8442 65.2704 -0.209358 12.9244 1.84817 5.91163e-10 1.79309e-09 -5.60093e-10 1.01614e-09 3.09013e-09 -9.77268e-10 5.91166e-10 1.79308e-09 -5.60104e-10 7.73091 5.47488 0.417314 5.91163e-10 1.79308e-09 -5.60095e-10 2.90554 0.965183 0.102902 5.91169e-10 1.79308e-09 -5.60096e-10 10.2786 0.731801 0.0259123 5.91155e-10 1.79309e-09 -5.60086e-10 2.22167 -0.733487 -0.20892 4.2006e-14 -1.25779e-13 6.79564e-14 -42.017 46.1741 -40.8179 27.5349 -28.3252 -64.5807 0.0354814 5.36853 -0.756736 -5.891e-10 4.83953e-09 8.40183e-10 -1.01412e-09 8.35053e-09 1.45432e-09 -5.89108e-10 4.8395e-09 8.40195e-10 -7.73091 5.47488 -0.417314 -5.89105e-10 4.83955e-09 8.40183e-10 -2.90554 0.965183 -0.102902 -5.89114e-10 4.83955e-09 8.40184e-10 -10.2786 0.731801 -0.0259123 -5.89094e-10 4.83953e-09 8.40175e-10 -2.22167 -0.733487 0.20892 -2.03217e-16 0.0 -3.88251e-19 -21.6533 -2.87278 -0.0113504 -0.000267361 -0.684006 -0.00177522 0.48821 3.55088 -0.0129054 2.03217e-16 0.0 3.88251e-19 8.80238 -10.9805 -6.5425 0.0459429 22.599 -0.613514 6.74759 -19.3568 18.7735
-4.88366 83.8445 34.7524 -2.9107 -3.7904 4.0911 -5.85206 2.82755 4.46989 0.596142 -1.46945 1.22576 -0.83974 2.57427 -2.55002 7.68042 16.2054 -5.88716 -0.0 0.0 0.0 -0.0 0.0 0.0 2.08677e-14 -5.18148e-14 1.06115e-13 34.338 47.8665 52.1998 -27.4732 -28.0445 64.0403 -0.206791 12.8468 1.8367 2.96668e-10 6.98998e-10 -3.78407e-10 5.08852e-10 1.20175e-09 -6.61182e-10 2.96672e-10 6.98992e-10 -3.78416e-10 7.73091 5.47488 0.417314 2.96668e-10 6.98993e-10 -3.78412e-10 2.90554 0.965183 0.102902 2.96675e-10 6.98992e-10 -3.78411e-10 10.2786 0.731801 0.0259123 2.96659e-10 6.98995e-10 -3.78399e-10 2.22167 -0.733487 -0.20892 2.07261e-14 -5.17907e-14 1.0596e-13 -41.9246 45.9608 -41.1174 27.5211 -28.2678 -64.4896 0.0353853 5.36134 -0.755716 -5.49059e-11 1.39604e-09 3.79605e-10 -9.30124e-11 2.4038e-09 6.55838e-10 -5.49179e-11 1.39601e-09 3.79613e-10 -7.73091 5.47488 -0.417314 -5.4913e-11 1.39606e-09 3.79606e-10 -2.90554 0.965183 -0.102902 -5.4923e-11 1.39606e-09 3.79605e-10 -10.2786 0.731801 -0.0259123 -5.48999e-11 1.39604e-09 3.79591e-10 -2.22167 -0.733487 0.20892 -2.03217e-16 0.0 -3.88251e-19 -21.6535 -2.87249 -0.0113498 -0.000272617 -0.685206 -0.00181952 0.487967 3.55187 -0.0128586 2.03217e-16 0.0 3.88251e-19 8.78817 -10.9711 -6.57838 0.0458752 22.6065 -0.614715 6.75907 -19.4061 18.7672
-4.88946 83.8479 34.758 -2.892 -3.8068 4.0665 -5.91509 2.79478 4.50433 0.658838 -1.32657 1.23595 -0.925488 2.45491 -2.58297 7.72491 16.2437 -5.93911 -0.0 0.0 0.0 -0.0 0.0 0.0 1.60286e-14 4.75375e-15 1.23296e-13 33.8163 47.7094 52.8475 -27.3373 -27.5375 63.3289 -0.205237 12.7993 1.82967 -2.84803e-11 -4.14793e-10 -1.77554e-10 -5.10853e-11 -7.20132e-10 -3.11107e-10 -2.84747e-11 -4.14798e-10 -1.77561e-10 7.73091 5.47488 0.417314 -2.84796e-11 -4.14798e-10 -1.77561e-10 2.90554 0.965183 0.102902 -2.84732e-11 -4.14799e-10 -1.77558e-10 10.2786 0.731801 0.0259123 -2.84896e-11 -4.14796e-10 -1.77545e-10 2.22167 -0.733487 -0.20892 1.58772e-14 4.78636e-15 1.23147e-13 -41.847 45.8601 -41.3304 27.5107 -28.2249 -64.4219 0.0351978 5.34729 -0.753724 2.77957e-10 -8.3905e-10 4.69354e-11 4.80875e-10 -1.45616e-09 7.92507e-11 2.77943e-10 -8.39074e-10 4.69418e-11 -7.73091 5.47488 -0.417314 2.77949e-10 -8.39024e-10 4.69386e-11 -2.90554 0.965183 -0.102902 2.77939e-10 -8.39024e-10 4.69354e-11 -10.2786 0.731801 -0.0259123 2.77963e-10 -8.39051e-10 4.69195e-11 -2.22167 -0.733487 0.20892 -2.03217e-16 0.0 -3.88251e-19 -21.6535 -2.87257 -0.0113505 -0.000274964 -0.685242 -0.00184015 0.487967 3.55203 -0.0128567 2.03217e-16 0.0 3.88251e-19 8.77872 -10.9686 -6.60813 0.0461561 22.6103 -0.614897 6.75 -19.4251 18.7331
-4.89727 83.8501 34.7638 -2.8771 -3.8029 4.0457 -5.95449 2.82757 4.58774 0.603381 -1.42192 1.25855 -1.00204 2.4655 -2.6349 7.83548 16.2829 -6.03911 -0.0 0.0 0.0 -0.0 0.0 0.0 4.38867e-14 3.85508e-14 1.07654e-13 33.7401 47.9161 52.8093 -27.3109 -27.4544 63.2571 -0.205109 12.7952 1.82906 -4.66945e-10 -1.76904e-09 8.68607e-11 -8.05924e-10 -3.05598e-09 1.50806e-10 -4.6694e-10 -1.76905e-09 8.68551e-11 7.73091 5.47488 0.417314 -4.66944e-10 -1.76905e-09 8.6853e-11 2.90554 0.965183 0.102902 -4.66938e-10 -1.76905e-09 8.6856e-11 10.2786 0.731801 0.0259123 -4.66953e-10 -1.76905e-09 8.68695e-11 2.22167 -0.733487 -0.20892 4.3756e-14 3.85763e-14 1.07487e-13 -41.7694 45.9542 -41.4265 27.5053 -28.2024 -64.3863 0.0348383 5.3202 -0.749883 2.79039e-10 -1.0885e-09 -8.91197e-11 4.82584e-10 -1.8874e-09 -1.56216e-10 2.79026e-10 -1.08852e-09 -8.91136e-11 -7.73091 5.47488 -0.417314 2.79032e-10 -1.08847e-09 -8.91152e-11 -2.90554 0.965183 -0.102902 2.79024e-10 -1.08847e-09 -8.91192e-11 -10.2786 0.731801 -0.0259123 2.79045e-10 -1.0885e-09 -8.91338e-11 -2.22167 -0.733487 0.20892 -2.03217e-16 0.0 -3.88251e-19 -21.6534 -2.87262 -0.011353 -0.000274724 -0.684849 -0.00183867 0.487871 3.55167 -0.0128474 2.03217e-16 0.0 3.88251e-19 8.7669 -10.9671 -6.62737 0.0468927 22.5998 -0.613388 6.71716 -19.4057 18.6687
-4.89986 83.8508 34.7673 -2.8563 -3.7358 4.0396 -5.98415 2.89965 4.69601 0.480527 -1.6597 1.28735 -1.08083 2.55328 -2.69818 7.98581 16.3234 -6.16614 -0.0 0.0 0.0 -0.0 0.0 0.0 9.06104e-14 6.23143e-14 7.09661e-14 33.9571 48.3872 52.3013 -27.3686 -27.6777 63.6174 -0.206095 12.8254 1.83353 -1.00142e-09 -3.35182e-09 4.10929e-10 -1.72593e-09 -5.78557e-09 7.17383e-10 -1.00142e-09 -3.35182e-09 4.10923e-10 7.73091 5.47488 0.417314 -1.00142e-09 -3.35182e-09 4.1092e-10 2.90554 0.965183 0.102902 -1.00142e-09 -3.35182e-09 4.10923e-10 10.2786 0.731801 0.0259123 -1.00143e-09 -3.35182e-09 4.10936e-10 2.22167 -0.733487 -0.20892 9.05194e-14 6.23228e-14 7.07673e-14 -41.6931 46.1651 -41.4554 27.5025 -28.1908 -64.3679 0.0343797 5.28529 -0.744934 1.0333e-10 -3.16822e-10 -1.36655e-10 1.79377e-10 -5.55414e-10 -2.38012e-10 1.0332e-10 -3.16837e-10 -1.36648e-10 -7.73091 5.47488 -0.417314 1.03325e-10 -3.1681e-10 -1.36649e-10 -2.90554 0.965183 -0.102902 1.0332e-10 -3.16813e-10 -1.36653e-10 -10.2786 0.731801 -0.0259123 1.03336e-10 -3.16823e-10 -1.36664e-10 -2.22167 -0.733487 0.20892 -2.03217e-16 0.0 -3.88251e-19 -21.6529 -2.87263 -0.0113585 -0.000273592 -0.684139 -0.00182984 0.487613 3.55092 -0.0128194 2.03217e-16 0.0 3.88251e-19 8.7507 -10.9666 -6.63735 0.0480658 22.5792 -0.610659 6.66521 -19.3612 18.5761
-4.89757 83.8502 34.7734 -2.8472 -3.5646 4.0345 -5.99462 2.98377 4.76922 0.349766 -1.90649 1.30616 -1.15535 2.65962 -2.75235 8.11422 16.338 -6.27145 -0.0 0.0 0.0 -0.0 0.0 0.0 1.29934e-13 7.85742e-14 3.1446e-14 34.3012 48.9638 51.5901 -27.4709 -28.076 64.2257 -0.207453 12.8668 1.83965 -1.4589e-09 -4.67536e-09 6.97694e-10 -2.51334e-09 -8.06803e-09 1.21885e-09 -1.4589e-09 -4.67536e-09 6.97688e-10 7.73091 5.47488 0.417314 -1.4589e-09 -4.67536e-09 6.97684e-10 2.90554 0.965183 0.102902 -1.45889e-09 -4.67536e-09 6.97687e-10 10.2786 0.731801 0.0259123 -1.4589e-09 -4.67536e-09 6.97699e-10 2.22167 -0.733487 -0.20892 1.29882e-13 7.85646e-14 3.12154e-14 -41.6459 46.3674 -41.453 27.501 -28.1845 -64.3578 0.0339553 5.25259 -0.740299 -7.19027e-11 4.50577e-10 -1.69186e-10 -1.23029e-10 7.69539e-10 -2.93813e-10 -7.19083e-11 4.50568e-10 -1.69178e-10 -7.73091 5.47488 -0.417314 -7.19041e-11 4.5058e-10 -1.69179e-10 -2.90554 0.965183 -0.102902 -7.19076e-11 4.50576e-10 -1.69183e-10 -10.2786 0.731801 -0.0259123 -7.18957e-11 4.50577e-10 -1.69191e-10 -2.22167 -0.733487 0.20892 -2.03217e-16 0.0 -3.88251e-19 -21.6524 -2.8735 -0.0113652 -0.000269572 -0.681379 -0.00179907 0.488008 3.549 -0.0128993 2.03217e-16 0.0 3.88251e-19 8.74763 -10.9802 -6.647 0.0494489 22.569 -0.607866 6.59829 -19.2997 18.4595
